<svg xmlns="http://www.w3.org/2000/svg" version="1.1" xmlns:xlink="http://www.w3.org/1999/xlink" xmlns:svgjs="http://svgjs.dev/svgjs" width="2000" height="419" viewBox="0 0 2000 419"><g transform="matrix(1,0,0,1,-1.2112696095522324,0.06288894875959272)"><svg viewBox="0 0 396 83" data-background-color="#ffffff" preserveAspectRatio="xMidYMid meet" height="419" width="2000" xmlns="http://www.w3.org/2000/svg" xmlns:xlink="http://www.w3.org/1999/xlink"><g id="tight-bounds" transform="matrix(1,0,0,1,0.24008861730862918,-0.012457715386744894)"><svg viewBox="0 0 395.52 83.02491543077346" height="83.02491543077346" width="395.52"><g><svg viewBox="0 0 395.52 83.02491543077346" height="83.02491543077346" width="395.52"><g><svg viewBox="0 0 395.52 83.02491543077346" height="83.02491543077346" width="395.52"><g id="textblocktransform"><svg viewBox="0 0 395.52 83.02491543077346" height="83.02491543077346" width="395.52" id="textblock"><g><svg viewBox="0 0 395.52 83.02491543077346" height="83.02491543077346" width="395.52"><path d="M394.594 17.807C392.735 9.189 387.435 6.794 387.435 6.794 371.165-2.083 350.86-0.17 332.619 1.106 300.414 1.157 268.339 3.053 236.208 4.07 168.767 4.225 100.749 1.674 33.643 7.966 27.339 9.896-6.54 8.345 1.121 18.91 3.129 23.306 10.456 28.183 10.232 32.216 11.236 32.923 12.631 31.303 13.226 32.32 15.309 35.06 18.711 33.768 21.501 35.388 17.614 39.714 20.403 43.316 23.062 47.091 18.377 48.074 12.371 47.608 9.675 50.866 9.396 53.227 7.89 52.779 6.235 52.676 5.026 52.607 2.59 52.865 2.999 53.606 4.394 56.14-1.594 57.605 2.162 60.087-0.422 62.776 3.948 65.103 3.353 68.015 3.278 68.601 3.687 69.101 4.338 69.239 7.22 69.98 3.018 71.428 3.464 72.997 33.029 83.717 65.104 76.306 95.394 81.235 103.259 77.788 97.346 82.459 100.489 81.735 102.943 80.891 104.728 84.39 107.499 82.407 107.927 81.839 107.276 80.494 108.8 80.753 109.6 80.891 110.307 80.856 110.418 80.063 110.586 78.874 109.117 79.615 108.726 78.995 112.947 75.858 111.906 83.321 115.866 83.011 115.68 82.097 114.528 80.787 116.889 80.96 119.232 79.65 119.306 78.564 121.389 81.511 121.463 82.149 121.835 82.597 122.43 82.907 128.938 79.701 135.409 84.045 142.233 82.597 146.417 81.011 150.433 83.459 154.672 82.856 156.16 82.373 157.666 81.511 159.098 82.959 176.632 83.269 195.319 81.977 211.943 83.011 256.364 81.08 303.836 83.804 350.674 81.253 361.719 80.27 373.192 78.874 383.958 77.754 383.958 77.754 392.679 74.686 392.679 60.897S394.538 48.832 394.817 37.853C395.096 26.873 396.398 26.425 394.538 17.807Z" opacity="1" fill="#5a4481" data-fill-palette-color="tertiary"></path><g transform="matrix(1,0,0,1,55.76832,26.230666666666668)"><svg width="283.98335999999995" viewBox="3.6 -38.5 363.26 39.1" height="30.563582097440122" data-palette-color="#ffffff"><path d="M29.45-35L38.85-35.6Q38.6-32.3 38.53-28.58 38.45-24.85 38.45-20.15L38.45-20.15Q38.45-16.1 38.48-13.18 38.5-10.25 38.58-7.98 38.65-5.7 38.73-3.83 38.8-1.95 38.95 0L38.95 0 32.25 0Q32.3-2 32.38-4 32.45-6 32.5-8.33 32.55-10.65 32.58-13.48 32.6-16.3 32.6-19.95L32.6-19.95 32.6-23.7 33-26.85 32.15-23.7Q30.55-17.8 28.68-11.8 26.8-5.8 24.45 0L24.45 0 18.2 0.6Q15.6-5.4 13.65-11.73 11.7-18.05 10.05-24.1L10.05-24.1 9.4-26.45 9.8-24.1 9.8-19.3Q9.8-13.25 9.9-8.58 10-3.9 10.1 0L10.1 0 3.6 0Q3.7-2.4 3.78-4.28 3.85-6.15 3.88-8 3.9-9.85 3.93-11.95 3.95-14.05 3.95-16.95L3.95-16.95Q3.95-19.85 3.95-22.18 3.95-24.5 3.9-26.58 3.85-28.65 3.8-30.55 3.75-32.45 3.7-34.5L3.7-34.5 12.45-35.6Q14.2-28.15 16.45-20.73 18.7-13.3 21.2-6.2L21.2-6.2Q22.4-9.65 23.53-13.05 24.65-16.45 25.68-19.98 26.7-23.5 27.65-27.23 28.6-30.95 29.45-35L29.45-35ZM45.45-25L52.3-25Q52.15-23.85 52.07-22.8 52-21.75 51.97-20.48 51.95-19.2 51.92-17.53 51.9-15.85 51.9-13.55L51.9-13.55Q51.9-11.25 51.9-9.4 51.9-7.55 51.92-5.95 51.95-4.35 51.97-2.93 52-1.5 52.05 0L52.05 0 45.3 0Q45.35-1.85 45.42-3.25 45.5-4.65 45.55-6.23 45.6-7.8 45.65-9.78 45.7-11.75 45.7-14.7L45.7-14.7Q45.7-17.4 45.65-19.78 45.6-22.15 45.45-25L45.45-25ZM45.3-33.15L45.3-33.15Q45.3-34.55 46.27-35.58 47.25-36.6 48.95-36.6L48.95-36.6Q50.4-36.6 51.47-35.75 52.55-34.9 52.55-33.45L52.55-33.45Q52.55-32.05 51.52-31.1 50.5-30.15 48.8-30.15L48.8-30.15Q47.35-30.15 46.32-30.93 45.3-31.7 45.3-33.15ZM56.15-21.55L62-25.6Q63-24.15 63.6-23.05 64.2-21.95 64.5-20.8L64.5-20.8Q65.25-21.6 66.2-22.48 67.15-23.35 68.22-24.03 69.3-24.7 70.55-25.15 71.8-25.6 73.15-25.6L73.15-25.6Q74.4-25.6 75.57-25.15 76.75-24.7 77.65-23.65 78.55-22.6 79.1-20.8 79.65-19 79.65-16.3L79.65-16.3Q79.65-15.6 79.62-14.25 79.6-12.9 79.55-11.38 79.5-9.85 79.47-8.45 79.45-7.05 79.45-6.3L79.45-6.3Q79.45-4.65 79.67-3.13 79.9-1.6 80.45-0.6L80.45-0.6 73.5 0.6Q73.15-0.55 73.07-1.9 73-3.25 73-4.25L73-4.25Q73-5.65 73.07-7.13 73.15-8.6 73.22-9.98 73.3-11.35 73.37-12.58 73.45-13.8 73.45-14.7L73.45-14.7Q73.45-17.65 72.45-18.75 71.45-19.85 69.7-19.85L69.7-19.85Q68.25-19.85 67.02-19.4 65.8-18.95 64.85-18.3L64.85-18.3Q64.95-17.35 64.95-16.2 64.95-15.05 64.95-13.55L64.95-13.55Q64.95-11.25 64.95-9.4 64.95-7.55 64.97-5.95 65-4.35 65.02-2.93 65.05-1.5 65.1 0L65.1 0 58.35 0Q58.4-1.2 58.45-2.7 58.5-4.2 58.57-5.88 58.65-7.55 58.7-9.33 58.75-11.1 58.75-12.75L58.75-12.75Q58.75-14.7 58.65-15.93 58.55-17.15 58.25-18.07 57.95-19 57.45-19.78 56.95-20.55 56.15-21.55L56.15-21.55ZM83.54-21.45L83.19-24.6Q84.84-24.7 85.89-25.18 86.94-25.65 87.62-26.58 88.29-27.5 88.74-29 89.19-30.5 89.64-32.6L89.64-32.6 94.29-33.95Q93.84-31.2 93.59-29.1 93.34-27 93.14-25L93.14-25 98.54-25 98.09-20.75 92.89-21.1Q92.69-18.1 92.62-15.58 92.54-13.05 92.54-11.25L92.54-11.25Q92.54-9.2 92.67-7.98 92.79-6.75 93.07-6.08 93.34-5.4 93.82-5.18 94.29-4.95 95.04-4.95L95.04-4.95Q96.04-4.95 96.99-5.23 97.94-5.5 98.59-5.9L98.59-5.9 97.84-0.7Q96.64-0.05 95.59 0.28 94.54 0.6 93.09 0.6L93.09 0.6Q91.44 0.6 90.19 0.1 88.94-0.4 88.12-1.58 87.29-2.75 86.89-4.63 86.49-6.5 86.49-9.2L86.49-9.2Q86.49-11.45 86.72-14.7 86.94-17.95 87.19-21.45L87.19-21.45 83.54-21.45ZM107.94 0.6L107.94 0.6Q104.79 0.6 102.87-1.55 100.94-3.7 100.94-7.15L100.94-7.15Q100.94-10.75 103.04-12.9 105.14-15.05 108.64-15.05L108.64-15.05Q110.09-15.05 111.54-14.65 112.99-14.25 114.14-13.5L114.14-13.5 114.14-16.3Q114.14-18.65 113.24-19.6 112.34-20.55 110.14-20.55L110.14-20.55Q108.64-20.55 106.97-20.18 105.29-19.8 104.29-19.25L104.29-19.25 102.74-24.05Q103.49-24.35 104.54-24.65 105.59-24.95 106.79-25.15 107.99-25.35 109.24-25.48 110.49-25.6 111.54-25.6L111.54-25.6Q120.34-25.6 120.34-17L120.34-17Q120.34-16.25 120.27-14.8 120.19-13.35 120.12-11.78 120.04-10.2 119.97-8.85 119.89-7.5 119.89-6.95L119.89-6.95Q119.89-5.8 120.24-5.3 120.59-4.8 121.54-4.8L121.54-4.8Q122.19-4.8 123.04-5L123.04-5 122.24-0.2Q121.44 0.05 120.77 0.2 120.09 0.35 119.39 0.35L119.39 0.35Q117.54 0.35 116.29-0.68 115.04-1.7 114.79-3.6L114.79-3.6Q113.79-1.65 111.99-0.53 110.19 0.6 107.94 0.6ZM110.34-4L110.34-4Q111.94-4 113.07-5.15 114.19-6.3 114.19-8.05L114.19-8.05Q114.19-9.55 113.29-10.45 112.39-11.35 110.79-11.35L110.79-11.35Q109.14-11.35 108.19-10.35 107.24-9.35 107.24-7.6L107.24-7.6Q107.24-5.95 108.07-4.98 108.89-4 110.34-4ZM144.74-11.3L132.04-11.3Q132.29-7.5 133.59-5.98 134.89-4.45 137.54-4.45L137.54-4.45Q139.54-4.45 141.31-5.05 143.09-5.65 144.24-6.15L144.24-6.15 144.24-2Q142.64-0.55 140.24 0.03 137.84 0.6 135.59 0.6L135.59 0.6Q133.74 0.6 131.94 0.15 130.14-0.3 128.71-1.58 127.29-2.85 126.41-5.13 125.54-7.4 125.54-11.1L125.54-11.1Q125.54-14.75 126.44-17.48 127.34-20.2 128.91-22 130.49-23.8 132.61-24.7 134.74-25.6 137.24-25.6L137.24-25.6Q139.79-25.6 141.41-24.73 143.04-23.85 143.96-22.5 144.89-21.15 145.21-19.5 145.54-17.85 145.54-16.3L145.54-16.3Q145.54-14.7 145.31-13.4 145.09-12.1 144.74-11.3L144.74-11.3ZM136.34-21.95L136.34-21.95Q134.39-21.95 133.31-20.28 132.24-18.6 132.04-15L132.04-15 140.29-15Q140.29-15.2 140.31-15.5 140.34-15.8 140.34-16.05L140.34-16.05Q140.34-16.85 140.19-17.88 140.04-18.9 139.59-19.8 139.14-20.7 138.36-21.33 137.59-21.95 136.34-21.95ZM148.94-38.5L154.04-38 152.94-25.55 149.49-25.8 148.94-38.5ZM165.78-4.7L165.78-4.7Q167.18-4.7 167.78-5.25 168.38-5.8 168.38-6.8L168.38-6.8Q168.38-7.45 168.16-7.9 167.93-8.35 167.46-8.7 166.98-9.05 166.23-9.38 165.48-9.7 164.43-10.1L164.43-10.1Q163.23-10.55 162.01-11.1 160.78-11.65 159.81-12.5 158.83-13.35 158.23-14.7 157.63-16.05 157.63-18.1L157.63-18.1Q157.63-20.5 158.56-21.98 159.48-23.45 160.83-24.25 162.18-25.05 163.73-25.33 165.28-25.6 166.58-25.6L166.58-25.6Q168.03-25.6 169.73-25.35 171.43-25.1 172.58-24.65L172.58-24.65 172.58-19.35Q171.73-19.65 170.78-19.88 169.83-20.1 168.93-20.25 168.03-20.4 167.23-20.48 166.43-20.55 165.93-20.55L165.93-20.55Q162.73-20.55 162.73-18.35L162.73-18.35Q162.73-16.8 164.13-16.03 165.53-15.25 167.58-14.5L167.58-14.5Q168.83-14.05 169.93-13.48 171.03-12.9 171.86-12.03 172.68-11.15 173.16-9.85 173.63-8.55 173.63-6.7L173.63-6.7Q173.63-2.9 171.53-1.15 169.43 0.6 166.08 0.6L166.08 0.6Q164.28 0.6 162.13 0.1 159.98-0.4 157.88-1.45L157.88-1.45 157.68-7.1Q158.33-6.65 159.33-6.23 160.33-5.8 161.48-5.48 162.63-5.15 163.76-4.93 164.88-4.7 165.78-4.7ZM213.63-25.05L213.63-25.05Q213.63-22.2 212.65-19.93 211.68-17.65 209.85-16.07 208.03-14.5 205.43-13.65 202.83-12.8 199.58-12.8L199.58-12.8Q198.73-12.8 197.95-12.85 197.18-12.9 196.38-13L196.38-13Q196.38-9.15 196.4-6.08 196.43-3 196.53 0L196.53 0 189.48 0Q189.58-2.4 189.65-4.23 189.73-6.05 189.78-8.03 189.83-10 189.85-12.45 189.88-14.9 189.88-18.55L189.88-18.55Q189.88-22.75 189.83-26.6 189.78-30.45 189.63-34.5L189.63-34.5Q190.73-34.7 192.03-34.9 193.33-35.1 194.7-35.25 196.08-35.4 197.45-35.48 198.83-35.55 200.13-35.55L200.13-35.55Q204.28-35.55 206.9-34.63 209.53-33.7 211.03-32.23 212.53-30.75 213.08-28.88 213.63-27 213.63-25.05ZM196.38-17.8L196.38-17.35Q197.08-17.2 197.83-17.15 198.58-17.1 199.38-17.1L199.38-17.1Q203.13-17.1 205.08-18.93 207.03-20.75 207.03-24.3L207.03-24.3Q207.03-27.6 205.4-29.35 203.78-31.1 200.78-31.1L200.78-31.1Q199.78-31.1 198.7-30.93 197.63-30.75 196.48-30.45L196.48-30.45Q196.38-28.05 196.38-25.05 196.38-22.05 196.38-17.8L196.38-17.8ZM226.98-21.5L226.98-21.5Q224.63-21.5 223.38-19.03 222.13-16.55 222.13-12.25L222.13-12.25Q222.13-8.05 223.15-5.73 224.18-3.4 226.73-3.4L226.73-3.4Q229.08-3.4 230.38-5.98 231.68-8.55 231.68-12.85L231.68-12.85Q231.68-14.85 231.48-16.45 231.28-18.05 230.75-19.18 230.23-20.3 229.3-20.9 228.38-21.5 226.98-21.5ZM215.58-12.1L215.58-12.1Q215.58-15.2 216.43-17.7 217.28-20.2 218.8-21.95 220.33-23.7 222.53-24.65 224.73-25.6 227.43-25.6L227.43-25.6Q232.53-25.6 235.35-22.35 238.18-19.1 238.18-13.25L238.18-13.25Q238.18-10.1 237.33-7.55 236.48-5 234.93-3.18 233.38-1.35 231.2-0.38 229.03 0.6 226.38 0.6L226.38 0.6Q223.88 0.6 221.88-0.3 219.88-1.2 218.48-2.85 217.08-4.5 216.33-6.85 215.58-9.2 215.58-12.1ZM240.92-21.85L246.77-25.9Q247.82-24.25 248.42-23.03 249.02-21.8 249.27-20.45L249.27-20.45Q249.77-21.2 250.52-22.08 251.27-22.95 252.22-23.73 253.17-24.5 254.32-25.1 255.47-25.7 256.77-25.9L256.77-25.9 257.22-18.8Q254.77-18.8 252.67-18.38 250.57-17.95 249.67-16.95L249.67-16.95Q249.72-16 249.72-14.88 249.72-13.75 249.72-12.35L249.72-12.35Q249.72-10.75 249.77-8.93 249.82-7.1 249.9-5.43 249.97-3.75 250.07-2.3 250.17-0.85 250.27 0L250.27 0 243.22 0Q243.27-1.05 243.32-2.45 243.37-3.85 243.42-5.35 243.47-6.85 243.5-8.43 243.52-10 243.52-11.45L243.52-11.45Q243.52-13.75 243.42-15.23 243.32-16.7 243.02-17.78 242.72-18.85 242.22-19.75 241.72-20.65 240.92-21.85L240.92-21.85ZM259.12-21.45L258.77-24.6Q260.42-24.7 261.47-25.18 262.52-25.65 263.2-26.58 263.87-27.5 264.32-29 264.77-30.5 265.22-32.6L265.22-32.6 269.87-33.95Q269.42-31.2 269.17-29.1 268.92-27 268.72-25L268.72-25 274.12-25 273.67-20.75 268.47-21.1Q268.27-18.1 268.2-15.58 268.12-13.05 268.12-11.25L268.12-11.25Q268.12-9.2 268.25-7.98 268.37-6.75 268.65-6.08 268.92-5.4 269.4-5.18 269.87-4.95 270.62-4.95L270.62-4.95Q271.62-4.95 272.57-5.23 273.52-5.5 274.17-5.9L274.17-5.9 273.42-0.7Q272.22-0.05 271.17 0.28 270.12 0.6 268.67 0.6L268.67 0.6Q267.02 0.6 265.77 0.1 264.52-0.4 263.7-1.58 262.87-2.75 262.47-4.63 262.07-6.5 262.07-9.2L262.07-9.2Q262.07-11.45 262.3-14.7 262.52-17.95 262.77-21.45L262.77-21.45 259.12-21.45ZM276.37-21.45L276.02-24.6 279.92-24.8Q279.97-25.7 279.99-26.48 280.02-27.25 280.12-28L280.12-28Q280.37-31.25 280.87-33.05 281.37-34.85 282.37-35.95L282.37-35.95Q283.47-37.2 285.14-37.85 286.82-38.5 288.57-38.5L288.57-38.5Q289.87-38.5 291.02-38.13 292.17-37.75 293.42-36.95L293.42-36.95 292.87-32.5Q291.72-32.95 290.67-33.18 289.62-33.4 288.82-33.4L288.82-33.4Q287.97-33.4 287.39-33.13 286.82-32.85 286.44-32.2 286.07-31.55 285.92-30.45 285.77-29.35 285.77-27.7L285.77-27.7 285.77-25 291.17-25 290.72-20.75 285.77-21.1 285.77-8.65Q285.77-7.3 285.77-6.2 285.77-5.1 285.82-4.08 285.87-3.05 285.89-2.05 285.92-1.05 286.02 0L286.02 0 279.82 0Q279.82-4.25 279.82-7.6 279.82-10.95 279.82-13.53 279.82-16.1 279.84-18.03 279.87-19.95 279.87-21.45L279.87-21.45 276.37-21.45ZM304.42-21.5L304.42-21.5Q302.07-21.5 300.82-19.03 299.57-16.55 299.57-12.25L299.57-12.25Q299.57-8.05 300.59-5.73 301.62-3.4 304.17-3.4L304.17-3.4Q306.52-3.4 307.82-5.98 309.12-8.55 309.12-12.85L309.12-12.85Q309.12-14.85 308.92-16.45 308.72-18.05 308.19-19.18 307.67-20.3 306.74-20.9 305.82-21.5 304.42-21.5ZM293.02-12.1L293.02-12.1Q293.02-15.2 293.87-17.7 294.72-20.2 296.24-21.95 297.77-23.7 299.97-24.65 302.17-25.6 304.87-25.6L304.87-25.6Q309.97-25.6 312.79-22.35 315.62-19.1 315.62-13.25L315.62-13.25Q315.62-10.1 314.77-7.55 313.92-5 312.37-3.18 310.82-1.35 308.64-0.38 306.47 0.6 303.82 0.6L303.82 0.6Q301.32 0.6 299.32-0.3 297.32-1.2 295.92-2.85 294.52-4.5 293.77-6.85 293.02-9.2 293.02-12.1ZM320.31-38L327.16-38.5Q327.01-36.75 326.94-34.9 326.86-33.05 326.84-30.83 326.81-28.6 326.79-25.85 326.76-23.1 326.76-19.55L326.76-19.55Q326.76-16.25 326.76-13.58 326.76-10.9 326.79-8.6 326.81-6.3 326.84-4.23 326.86-2.15 326.91 0L326.91 0 320.16 0Q320.21-2.6 320.29-4.6 320.36-6.6 320.41-8.78 320.46-10.95 320.51-13.73 320.56-16.5 320.56-20.7L320.56-20.7Q320.56-24.95 320.51-29.23 320.46-33.5 320.31-38L320.31-38ZM332.96-25L339.81-25Q339.66-23.85 339.59-22.8 339.51-21.75 339.49-20.48 339.46-19.2 339.44-17.53 339.41-15.85 339.41-13.55L339.41-13.55Q339.41-11.25 339.41-9.4 339.41-7.55 339.44-5.95 339.46-4.35 339.49-2.93 339.51-1.5 339.56 0L339.56 0 332.81 0Q332.86-1.85 332.94-3.25 333.01-4.65 333.06-6.23 333.11-7.8 333.16-9.78 333.21-11.75 333.21-14.7L333.21-14.7Q333.21-17.4 333.16-19.78 333.11-22.15 332.96-25L332.96-25ZM332.81-33.15L332.81-33.15Q332.81-34.55 333.79-35.58 334.76-36.6 336.46-36.6L336.46-36.6Q337.91-36.6 338.99-35.75 340.06-34.9 340.06-33.45L340.06-33.45Q340.06-32.05 339.04-31.1 338.01-30.15 336.31-30.15L336.31-30.15Q334.86-30.15 333.84-30.93 332.81-31.7 332.81-33.15ZM355.66-21.5L355.66-21.5Q353.31-21.5 352.06-19.03 350.81-16.55 350.81-12.25L350.81-12.25Q350.81-8.05 351.83-5.73 352.86-3.4 355.41-3.4L355.41-3.4Q357.76-3.4 359.06-5.98 360.36-8.55 360.36-12.85L360.36-12.85Q360.36-14.85 360.16-16.45 359.96-18.05 359.43-19.18 358.91-20.3 357.98-20.9 357.06-21.5 355.66-21.5ZM344.26-12.1L344.26-12.1Q344.26-15.2 345.11-17.7 345.96-20.2 347.48-21.95 349.01-23.7 351.21-24.65 353.41-25.6 356.11-25.6L356.11-25.6Q361.21-25.6 364.03-22.35 366.86-19.1 366.86-13.25L366.86-13.25Q366.86-10.1 366.01-7.55 365.16-5 363.61-3.18 362.06-1.35 359.88-0.38 357.71 0.6 355.06 0.6L355.06 0.6Q352.56 0.6 350.56-0.3 348.56-1.2 347.16-2.85 345.76-4.5 345.01-6.85 344.26-9.2 344.26-12.1Z" opacity="1" transform="matrix(1,0,0,1,0,0)" fill="#ffffff" class="wordmark-text-0" data-fill-palette-color="quaternary" id="text-0"></path></svg></g></svg></g></svg></g></svg></g><g></g></svg></g><defs></defs></svg><rect width="395.52" height="83.02491543077346" fill="none" stroke="none" visibility="hidden"></rect></g></svg></g></svg>