<svg xmlns="http://www.w3.org/2000/svg" version="1.1" xmlns:xlink="http://www.w3.org/1999/xlink" xmlns:svgjs="http://svgjs.dev/svgjs" width="2000" height="530" viewBox="0 0 2000 530"><g transform="matrix(1,0,0,1,-1.2112696095522324,-1.029327113055956)"><svg viewBox="0 0 396 105" data-background-color="#5a4481" preserveAspectRatio="xMidYMid meet" height="530" width="2000" xmlns="http://www.w3.org/2000/svg" xmlns:xlink="http://www.w3.org/1999/xlink"><g id="tight-bounds" transform="matrix(1,0,0,1,0.24008861730862918,0.20392373579539935)"><svg viewBox="0 0 395.52 104.59215296822177" height="104.59215296822177" width="395.52"><g><svg viewBox="0 0 395.52 104.59215296822177" height="104.59215296822177" width="395.52"><g><svg viewBox="0 0 395.52 104.59215296822177" height="104.59215296822177" width="395.52"><g id="textblocktransform"><svg viewBox="0 0 395.52 104.59215296822177" height="104.59215296822177" width="395.52" id="textblock"><g><svg viewBox="0 0 395.52 104.59215296822177" height="104.59215296822177" width="395.52"><path d="M394.594 22.433C392.735 11.576 387.435 8.558 387.435 8.558 371.165-2.624 350.86-0.214 332.619 1.393 300.414 1.458 268.339 3.846 236.208 5.128 168.767 5.323 100.749 2.109 33.643 10.035 27.339 12.467-6.54 10.512 1.121 23.823 3.129 29.36 10.456 35.504 10.232 40.585 11.236 41.476 12.631 39.434 13.226 40.716 15.309 44.168 18.711 42.539 21.501 44.581 17.614 50.031 20.403 54.569 23.062 59.324 18.377 60.561 12.371 59.975 9.675 64.079 9.396 67.054 7.89 66.489 6.235 66.359 5.026 66.272 2.59 66.598 2.999 67.531 4.394 70.723-1.594 72.569 2.162 75.696-0.422 79.083 3.948 82.014 3.353 85.684 3.278 86.422 3.687 87.052 4.338 87.225 7.22 88.159 3.018 89.983 3.464 91.959 33.029 105.465 65.104 96.128 95.394 102.338 103.259 97.995 97.346 103.879 100.489 102.967 102.943 101.904 104.728 106.311 107.499 103.814 107.927 103.098 107.276 101.404 108.8 101.73 109.6 101.904 110.307 101.86 110.418 100.861 110.586 99.363 109.117 100.297 108.726 99.515 112.947 95.563 111.906 104.965 115.866 104.574 115.68 103.423 114.528 101.773 116.889 101.99 119.232 100.34 119.306 98.972 121.389 102.685 121.463 103.489 121.835 104.053 122.43 104.444 128.938 100.405 135.409 105.877 142.233 104.053 146.417 102.056 150.433 105.139 154.672 104.379 156.16 103.771 157.666 102.685 159.098 104.509 176.632 104.9 195.319 103.271 211.943 104.574 256.364 102.142 303.836 105.573 350.674 102.36 361.719 101.122 373.192 99.363 383.958 97.952 383.958 97.952 392.679 94.087 392.679 76.716S394.538 61.517 394.817 47.686C395.096 33.854 396.398 33.29 394.538 22.433Z" opacity="1" fill="#ffffff" data-fill-palette-color="tertiary"></path><g transform="matrix(1,0,0,1,55.76832,26.230666666666668)"><svg width="283.98335999999995" viewBox="3.85 -35.7 197.18 36.2" height="52.130819634888425" data-palette-color="#5a4481"><path d="M36.05-16.3L36.1-11.5Q36.2-5.4 36.2-2.15L36.2-2.15Q36.2-1 35.58-0.35 34.95 0.3 33.75 0.3L33.75 0.3Q32.55 0.3 31.88-0.33 31.2-0.95 31.2-2L31.2-2 31.2-16.1Q31.2-23.05 30.7-26.35 30.2-29.65 29.4-29.65L29.4-29.65Q28.7-29.65 27.45-27.4 26.2-25.15 25.35-23L25.35-23Q24.05-19.9 22.8-14.1L22.8-14.1Q22.35-12.2 20-12.2L20-12.2Q17.75-12.2 17.25-13.95L17.25-13.95Q16.9-15 16.45-16.8L16.45-16.8Q15.4-20.8 14.6-22.9L14.6-22.9Q13.75-25.25 12.5-27.5 11.25-29.75 10.65-29.75L10.65-29.75Q9.2-29.75 8.9-16.45L8.9-16.45Q8.85-14.05 8.85-9.5L8.85-9.5 8.85-2Q8.85-1.05 8.18-0.48 7.5 0.1 6.25 0.1L6.25 0.1Q4.95 0.1 4.4-0.55 3.85-1.2 3.85-2.55L3.85-2.55Q3.85-5.2 3.95-9.9L3.95-9.9 4-16.55Q4-26.5 5.43-31.05 6.85-35.6 10.05-35.6L10.05-35.6Q13.7-35.6 15.95-30.98 18.2-26.35 19.95-19.35L19.95-19.35Q21.5-25.75 24.13-30.68 26.75-35.6 30.35-35.6L30.35-35.6Q32.55-35.6 33.77-33.38 35-31.15 35.5-26.98 36-22.8 36.05-16.3L36.05-16.3ZM48.45-27.55Q46.9-27.55 45.9-28.58 44.9-29.6 44.9-31.15L44.9-31.15Q44.9-32.65 45.92-33.65 46.95-34.65 48.55-34.65L48.55-34.65Q50.15-34.65 51.12-33.7 52.1-32.75 52.1-31.2L52.1-31.2Q52.1-29.65 51.07-28.6 50.05-27.55 48.45-27.55L48.45-27.55ZM47.75-0.3Q46.6-0.3 45.9-0.85 45.2-1.4 45.2-2.4L45.2-2.4 45.7-22.7Q45.7-23.7 46.4-24.28 47.1-24.85 48.2-24.85L48.2-24.85Q49.3-24.85 50.02-24.25 50.75-23.65 50.75-22.65L50.75-22.65 50.25-2.35Q50.2-1.35 49.52-0.83 48.85-0.3 47.75-0.3L47.75-0.3ZM72.15-25.5Q76.4-25.5 78.62-22.48 80.85-19.45 80.85-13.45L80.85-13.45 80.85-1.9Q80.85-0.95 80.2-0.48 79.55 0 78.45 0L78.45 0Q77.35 0 76.6-0.45 75.85-0.9 75.85-1.8L75.85-1.8 75.9-13.5Q75.9-17.65 74.97-19.53 74.05-21.4 71.7-21.4L71.7-21.4Q67.2-21.4 65.85-14.2L65.85-14.2Q65.4-12 65.4-8.9L65.4-8.9 65.45-1.8Q65.45-0.9 64.8-0.43 64.15 0.05 63.05 0.05L63.05 0.05Q61.85 0.05 61.17-0.48 60.5-1 60.5-1.8L60.5-1.8Q60.5-6.8 60.3-13.4L60.3-13.4Q60.2-17.3 60.2-18.8L60.2-18.8Q60.15-19.9 59.87-20.53 59.6-21.15 58.85-22.4L58.85-22.4Q58.65-22.9 58.65-23.25L58.65-23.25Q58.65-24 59.5-24.65 60.35-25.3 61.15-25.3L61.15-25.3Q62-25.3 62.8-24.2L62.8-24.2Q64.15-22.25 64.15-20.65L64.15-20.65 64.15-20.05Q65.05-22.4 66.97-23.95 68.9-25.5 72.15-25.5L72.15-25.5ZM101.64-8.75Q102.79-8.75 103.29-8.25 103.79-7.75 103.79-6.55L103.79-6.55Q103.79-3.7 101.94-1.83 100.09 0.05 97.24 0.05L97.24 0.05Q93.29 0.05 91.54-3.33 89.79-6.7 89.79-13.9L89.79-13.9Q89.79-16.45 89.94-19L89.94-19 87.54-19.15Q85.59-19.25 85.59-21.2L85.59-21.2Q85.59-22.2 86.12-22.68 86.64-23.15 87.84-23.1L87.84-23.1 90.29-22.95Q90.59-26.1 91.44-31.7L91.44-31.7Q91.74-33.5 93.89-33.5L93.89-33.5Q95.14-33.5 95.82-32.85 96.49-32.2 96.39-31.3L96.39-31.3Q95.69-26.95 95.19-22.7L95.19-22.7Q97.89-22.6 98.74-22.6L98.74-22.6Q99.69-22.6 100.14-22.18 100.59-21.75 100.59-20.85L100.59-20.85Q100.59-19.75 100.12-19.33 99.64-18.9 98.39-18.85L98.39-18.85 94.84-18.85Q94.69-16.45 94.69-13.9L94.69-13.9Q94.69-8.85 95.34-6.43 95.99-4 97.64-4L97.64-4Q99.54-4 99.69-6.95L99.69-6.95Q99.69-7.85 100.12-8.3 100.54-8.75 101.64-8.75L101.64-8.75ZM132.74-4Q133.49-3.9 133.92-3.5 134.34-3.1 134.34-2.15L134.34-2.15Q134.34-1.25 133.89-0.65 133.44-0.05 132.64-0.05L132.64-0.05Q130.59-0.05 129.56-0.65 128.54-1.25 127.69-2.9L127.69-2.9Q125.59 0.5 119.89 0.5L119.89 0.5Q114.09 0.5 111.34-3.03 108.59-6.55 108.59-11.8L108.59-11.8Q108.59-15.3 109.99-18.25 111.39-21.2 114.09-22.95 116.79-24.7 120.39-24.7L120.39-24.7Q122.69-24.7 124.47-23.8 126.24-22.9 127.14-21.35L127.14-21.35 127.29-22.6Q127.49-24.4 129.44-24.4L129.44-24.4Q130.74-24.4 131.29-23.83 131.84-23.25 131.74-22.4L131.74-22.4Q131.24-18.65 131.14-16.75L131.14-16.75Q130.99-14.95 130.99-12.05L130.99-12.05 130.99-8.75Q130.99-6.15 131.27-5.15 131.54-4.15 132.74-4L132.74-4ZM126.09-8.75Q126.14-11 126.14-14.9L126.14-14.9Q126.14-16.95 125.27-18.25 124.39-19.55 123.12-20.15 121.84-20.75 120.54-20.75L120.54-20.75Q118.29-20.75 116.72-19.43 115.14-18.1 114.37-16.05 113.59-14 113.59-11.8L113.59-11.8Q113.59-8.45 115.17-5.98 116.74-3.5 120.09-3.5L120.09-3.5Q122.74-3.5 124.39-4.85 126.04-6.2 126.09-8.75L126.09-8.75ZM152.94 0.3Q148.69 0.3 145.66-1.45 142.64-3.2 141.11-6.15 139.59-9.1 139.59-12.65L139.59-12.65Q139.59-16.3 141.24-19.28 142.89-22.25 145.89-23.98 148.89-25.7 152.74-25.7L152.74-25.7Q156.14-25.7 158.86-24.33 161.59-22.95 163.14-20.45 164.69-17.95 164.69-14.75L164.69-14.75Q164.69-13.05 164.19-12.33 163.69-11.6 162.14-11.55L162.14-11.55 144.09-11.3Q144.09-9.65 145.14-7.9 146.19-6.15 148.16-4.98 150.14-3.8 152.79-3.8L152.79-3.8Q154.69-3.8 156.01-4.33 157.34-4.85 158.14-5.58 158.94-6.3 160.04-7.5L160.04-7.5Q160.59-8.05 161.44-8.05L161.44-8.05Q162.24-8.05 162.96-7.43 163.69-6.8 163.69-6L163.69-6Q163.69-5.35 163.24-4.75L163.24-4.75Q161.84-2.75 159.49-1.23 157.14 0.3 152.94 0.3L152.94 0.3ZM144.09-14.8L159.99-15.1Q160.29-15.1 160.41-15.28 160.54-15.45 160.54-15.8L160.54-15.8Q160.54-18.45 158.31-20.13 156.09-21.8 152.74-21.8L152.74-21.8Q150.19-21.8 148.21-20.6 146.24-19.4 145.16-17.73 144.09-16.05 144.09-14.8L144.09-14.8ZM173.39-23.8Q172.54-23.8 172.01-24.18 171.49-24.55 171.49-25.2L171.49-25.2Q171.49-27.45 171.54-28.85L171.54-28.85 171.59-34.5Q171.59-35.05 172.11-35.38 172.64-35.7 173.49-35.7L173.49-35.7Q174.39-35.7 174.91-35.38 175.44-35.05 175.44-34.5L175.44-34.5 175.39-25.1Q175.39-24.5 174.84-24.15 174.29-23.8 173.39-23.8L173.39-23.8ZM191.68 0.3Q188.23 0.3 185.73-1.35 183.23-3 181.98-5.65L181.98-5.65Q181.63-6.35 181.63-6.75L181.63-6.75Q181.68-7.6 182.58-8.28 183.48-8.95 184.38-8.85L184.38-8.85Q184.88-8.75 185.16-8.47 185.43-8.2 185.93-7.55L185.93-7.55Q187.28-5.7 188.51-4.73 189.73-3.75 191.73-3.75L191.73-3.75Q193.58-3.75 194.83-4.65 196.08-5.55 196.08-6.9L196.08-6.9Q196.08-8.35 194.78-9.13 193.48-9.9 190.68-10.9L190.68-10.9Q188.08-11.75 186.43-12.58 184.78-13.4 183.61-14.88 182.43-16.35 182.43-18.65L182.43-18.65Q182.43-20.75 183.61-22.48 184.78-24.2 186.88-25.18 188.98-26.15 191.63-26.15L191.63-26.15Q194.33-26.15 196.38-25.13 198.43-24.1 199.53-22.4 200.63-20.7 200.63-18.7L200.63-18.7Q200.63-17.55 200.11-17.03 199.58-16.5 198.38-16.5L198.38-16.5Q197.18-16.5 196.78-16.93 196.38-17.35 196.33-18.05L196.33-18.05Q196.13-20 194.96-21.03 193.78-22.05 191.63-22.05L191.63-22.05Q189.38-22.05 188.36-21.03 187.33-20 187.33-18.75L187.33-18.75Q187.33-17.25 188.66-16.45 189.98-15.65 192.88-14.65L192.88-14.65Q195.48-13.75 197.11-12.95 198.73-12.15 199.88-10.73 201.03-9.3 201.03-7.05L201.03-7.05Q201.03-4.65 199.71-3 198.38-1.35 196.23-0.53 194.08 0.3 191.68 0.3L191.68 0.3Z" opacity="1" transform="matrix(1,0,0,1,0,0)" fill="#5a4481" class="wordmark-text-0" data-fill-palette-color="quaternary" id="text-0"></path></svg></g></svg></g></svg></g></svg></g><g></g></svg></g><defs></defs></svg><rect width="395.52" height="104.59215296822177" fill="none" stroke="none" visibility="hidden"></rect></g></svg></g></svg>